<svg xmlns="http://www.w3.org/2000/svg" xmlns:xlink="http://www.w3.org/1999/xlink" version="1.1" data-diagram-type="SEQUENCE" style="width:900px;height:398px;background:#FFFFFF;" width="900px" height="398px" viewBox="0 0 900 398" zoomAndPan="magnify" preserveAspectRatio="none" contentStyleType="text/css"><?plantuml 1.2026.8?><defs/><g font-family="sans-serif" lengthAdjust="spacing"><rect x="213.595" y="156.992" width="657.206" height="177.828" fill="none" style="stroke:#000;stroke-width:1.5;"/><rect x="232.595" y="188.125" width="463.561" height="56.266" fill="none" style="stroke:#000;stroke-width:1.5;"/><rect x="232.595" y="262.391" width="613.206" height="58.43" fill="none" style="stroke:#000;stroke-width:1.5;"/><g><title>.LeeruitkomstGetoetst</title><rect x="245.095" y="57.594" width="8" height="330.359" fill="#000" fill-opacity="0"/><line x1="248.595" y1="57.594" x2="248.595" y2="387.953" style="stroke:#181818;stroke-width:0.5;stroke-dasharray:5,5;"/></g><g><title></title><rect x="243.595" y="86.727" width="10" height="283.227" fill="#FFF" style="stroke:#181818;stroke-width:1;"/></g><g><title>owe . OWE</title><rect x="532.159" y="57.594" width="8" height="330.359" fill="#000" fill-opacity="0"/><line x1="535.659" y1="57.594" x2="535.659" y2="387.953" style="stroke:#181818;stroke-width:0.5;stroke-dasharray:5,5;"/></g><g><title></title><rect x="530.659" y="115.859" width="10" height="13" fill="#FFF" style="stroke:#181818;stroke-width:1;"/></g><g><title></title><rect x="530.659" y="144.992" width="10" height="13" fill="#FFF" style="stroke:#181818;stroke-width:1;"/></g><g><title>criteria.j. .</title><rect x="671.656" y="57.594" width="8" height="330.359" fill="#000" fill-opacity="0"/><line x1="675.156" y1="57.594" x2="675.156" y2="387.953" style="stroke:#181818;stroke-width:0.5;stroke-dasharray:5,5;"/></g><g><title></title><rect x="670.156" y="236.391" width="10" height="13" fill="#FFF" style="stroke:#181818;stroke-width:1;"/></g><g><title>o . Overtreding</title><rect x="826.301" y="289.523" width="8" height="98.43" fill="#000" fill-opacity="0"/><line x1="829.801" y1="289.523" x2="829.801" y2="387.953" style="stroke:#181818;stroke-width:0.5;stroke-dasharray:5,5;"/></g><rect x="162.972" y="10" width="171.247" height="46.594" fill="#E2E2F0" style="stroke:#181818;stroke-width:0.5;" rx="2.5" ry="2.5"/><text x="169.972" y="29.995" fill="#000" font-size="14" textLength="157.247" font-family="Helvetica">:LeeruitkomstGetoetst</text><text x="228.73" y="46.292" fill="#000" font-size="14" textLength="39.73" font-family="Helvetica">Regel</text><rect x="490.682" y="26.297" width="89.954" height="30.297" fill="#E2E2F0" style="stroke:#181818;stroke-width:0.5;" rx="2.5" ry="2.5"/><text x="497.682" y="46.292" fill="#000" font-size="14" textLength="75.954" font-family="Helvetica">owe : OWE</text><rect x="590.636" y="10" width="169.039" height="46.594" fill="#E2E2F0" style="stroke:#181818;stroke-width:0.5;" rx="2.5" ry="2.5"/><text x="638.331" y="29.995" fill="#000" font-size="14" textLength="73.65" font-family="Helvetica">criteria[j] :</text><text x="597.636" y="46.292" fill="#000" font-size="14" textLength="155.039" font-family="Helvetica">Beoordelingscriterium</text><polygon points="231.595,82.727,241.595,86.727,231.595,90.727" fill="#181818" style="stroke:#181818;stroke-width:1;stroke-linejoin:miter;stroke-miterlimit:10;"/><line x1="10" y1="86.727" x2="237.595" y2="86.727" style="stroke:#181818;stroke-width:1;"/><text x="17" y="81.661" fill="#000" font-size="13" textLength="214.595" font-family="Helvetica">overtredingen = controleer(owe)</text><polygon points="518.659,111.859,528.659,115.859,518.659,119.859" fill="#181818" style="stroke:#181818;stroke-width:1;stroke-linejoin:miter;stroke-miterlimit:10;"/><line x1="253.595" y1="115.859" x2="524.659" y2="115.859" style="stroke:#181818;stroke-width:1;"/><text x="260.595" y="110.793" fill="#000" font-size="13" textLength="258.064" font-family="Helvetica">leeruitkomsten = geefLeeruitkomsten()</text><polygon points="518.659,140.992,528.659,144.992,518.659,148.992" fill="#181818" style="stroke:#181818;stroke-width:1;stroke-linejoin:miter;stroke-miterlimit:10;"/><line x1="253.595" y1="144.992" x2="524.659" y2="144.992" style="stroke:#181818;stroke-width:1;"/><text x="260.595" y="139.926" fill="#000" font-size="13" textLength="152.299" font-family="Helvetica">criteria = geefCriteria()</text><path d="M213.595,156.992 L290.219,156.992 L290.219,164.125 L280.219,174.125 L213.595,174.125 L213.595,156.992" style="stroke:#000;stroke-width:1.5;" fill="#EEE"/><rect x="213.595" y="156.992" width="657.206" height="177.828" fill="none" style="stroke:#000;stroke-width:1.5;"/><text x="228.595" y="170.059" fill="#000" font-size="13" textLength="31.624" font-weight="700" font-family="Helvetica">loop</text><text x="305.219" y="169.203" fill="#000" font-size="11" textLength="188.869" font-weight="700" font-family="Helvetica">[voor elke l in leeruitkomsten]</text><path d="M232.595,188.125 L309.219,188.125 L309.219,195.258 L299.219,205.258 L232.595,205.258 L232.595,188.125" style="stroke:#000;stroke-width:1.5;" fill="#EEE"/><rect x="232.595" y="188.125" width="463.561" height="56.266" fill="none" style="stroke:#000;stroke-width:1.5;"/><text x="247.595" y="201.192" fill="#000" font-size="13" textLength="31.624" font-weight="700" font-family="Helvetica">loop</text><text x="324.219" y="200.335" fill="#000" font-size="11" textLength="203.479" font-weight="700" font-family="Helvetica">[voor elk criterium, tot getoetst]</text><polygon points="658.156,232.391,668.156,236.391,658.156,240.391" fill="#181818" style="stroke:#181818;stroke-width:1;stroke-linejoin:miter;stroke-miterlimit:10;"/><line x1="253.595" y1="236.391" x2="664.156" y2="236.391" style="stroke:#181818;stroke-width:1;"/><text x="260.595" y="231.325" fill="#000" font-size="13" textLength="125.195" font-family="Helvetica">getoetst = toetst(l)</text><path d="M232.595,262.391 L302.046,262.391 L302.046,269.523 L292.046,279.523 L232.595,279.523 L232.595,262.391" style="stroke:#000;stroke-width:1.5;" fill="#EEE"/><rect x="232.595" y="262.391" width="613.206" height="58.43" fill="none" style="stroke:#000;stroke-width:1.5;"/><text x="247.595" y="275.458" fill="#000" font-size="13" textLength="24.451" font-weight="700" font-family="Helvetica">opt</text><text x="317.046" y="274.601" fill="#000" font-size="11" textLength="90.879" font-weight="700" font-family="Helvetica">[niet getoetst]</text><rect x="769.675" y="289.523" width="120.251" height="30.297" fill="#E2E2F0" style="stroke:#181818;stroke-width:0.5;" rx="2.5" ry="2.5"/><text x="776.675" y="309.519" fill="#000" font-size="14" textLength="106.251" font-family="Helvetica">o : Overtreding</text><polygon points="757.675,306.656,767.675,310.656,757.675,314.656" fill="#181818" style="stroke:#181818;stroke-width:1;stroke-linejoin:miter;stroke-miterlimit:10;"/><line x1="253.595" y1="310.656" x2="763.675" y2="310.656" style="stroke:#181818;stroke-width:1;"/><text x="260.595" y="305.59" fill="#000" font-size="13" textLength="172.79" font-family="Helvetica">create("BR1", melding, [l])</text><polygon points="21,365.953,11,369.953,21,373.953" fill="#181818" style="stroke:#181818;stroke-width:1;stroke-linejoin:miter;stroke-miterlimit:10;"/><line x1="15" y1="369.953" x2="242.595" y2="369.953" style="stroke:#181818;stroke-width:1;stroke-dasharray:2,2;"/><text x="149.573" y="364.887" fill="#000" font-size="13" textLength="92.022" font-family="Helvetica">overtredingen</text><?plantuml-src XLDDJoCn3BtdLrYzC9NQ8guLS02nkmS44Y1nA1ooYJlDDXENn3F0lyVpGPkfaFOmKMm_Fx_dQ4xW4Tzg30R1Ebr6NK6Z0zmYnjhnbgh4lv49EV43bkWNXW97ybA7ukhXRBfG9_14w9tPi0lb4YoPT9e6qe6pmh2eh4fR5tQwdP7uqwESqHckAvzNDjhIkp31Mlk4MSNYMjUUVuc0ErqX_47V83kZrSPPX3KH_wKFfGGjMRVJWM6o_Cd9I-YyJ40dYErjt4Fl24kuVxxf01ADooOwnkZqwjyhB5_25H95Ami8PHfATTLrxgCZ-fQymSXHrXFAViWXLcerl-nb2J0hO80BEAo_465JfGsxHZCEFleswUyz-CnyrruYhcz7oIBZQArQ78L7XD_U1whh8VmFYIVQGIDh0lHR10yk74bJ02FGONSpO68Prh-Su03sclOWKVQD46NzfV3J3hrNSdYEDfr9p0iOh9oqOmWEZ-QQY9sZxAr6Sh92jweMNKpa9vdCe4BVvcUmyg_JOKxxhSxdyvyVErzY1_W2?></g></svg>