<svg xmlns="http://www.w3.org/2000/svg" xmlns:xlink="http://www.w3.org/1999/xlink" version="1.1" data-diagram-type="SEQUENCE" style="width:1324px;height:815px;background:#FFFFFF;" width="1324px" height="815px" viewBox="0 0 1324 815" zoomAndPan="magnify" preserveAspectRatio="none" contentStyleType="text/css"><?plantuml 1.2026.8?><defs/><g font-family="sans-serif" lengthAdjust="spacing"><rect x="368.48" y="534.391" width="889.987" height="56.266" fill="none" style="stroke:#000;stroke-width:1.5;"/><g><title>.Onderwijsontwikkelaar</title><rect x="91.644" y="86.297" width="8" height="718.555" fill="#000" fill-opacity="0"/><line x1="95.144" y1="86.297" x2="95.144" y2="804.852" style="stroke:#181818;stroke-width:0.5;stroke-dasharray:5,5;"/></g><g><title>.BeheerPlanning</title><rect x="380.98" y="86.297" width="8" height="718.555" fill="#000" fill-opacity="0"/><line x1="384.48" y1="86.297" x2="384.48" y2="804.852" style="stroke:#181818;stroke-width:0.5;stroke-dasharray:5,5;"/></g><g><title></title><rect x="379.48" y="160.828" width="10" height="464.961" fill="#FFF" style="stroke:#181818;stroke-width:1;"/></g><g><title>owes .</title><rect x="556.034" y="86.297" width="8" height="718.555" fill="#000" fill-opacity="0"/><line x1="559.534" y1="86.297" x2="559.534" y2="804.852" style="stroke:#181818;stroke-width:0.5;stroke-dasharray:5,5;"/></g><g><title></title><rect x="554.534" y="189.961" width="10" height="13" fill="#FFF" style="stroke:#181818;stroke-width:1;"/></g><g><title></title><rect x="554.534" y="449.156" width="10" height="13" fill="#FFF" style="stroke:#181818;stroke-width:1;"/></g><g><title>owe . OWE</title><rect x="672.401" y="86.297" width="8" height="718.555" fill="#000" fill-opacity="0"/><line x1="675.901" y1="86.297" x2="675.901" y2="804.852" style="stroke:#181818;stroke-width:0.5;stroke-dasharray:5,5;"/></g><g><title></title><rect x="670.901" y="249.359" width="10" height="170.664" fill="#FFF" style="stroke:#181818;stroke-width:1;"/></g><g><title>t . Toetsmoment</title><rect x="963.297" y="383.758" width="8" height="421.094" fill="#000" fill-opacity="0"/><line x1="966.797" y1="383.758" x2="966.797" y2="804.852" style="stroke:#181818;stroke-width:0.5;stroke-dasharray:5,5;"/></g><g><title>toetsdrukRegel .</title><rect x="1106.724" y="86.297" width="8" height="718.555" fill="#000" fill-opacity="0"/><line x1="1110.224" y1="86.297" x2="1110.224" y2="804.852" style="stroke:#181818;stroke-width:0.5;stroke-dasharray:5,5;"/></g><g><title></title><rect x="1105.224" y="478.289" width="10" height="52.102" fill="#FFF" style="stroke:#181818;stroke-width:1;"/></g><g><title>alle.i. .</title><rect x="1233.967" y="86.297" width="8" height="718.555" fill="#000" fill-opacity="0"/><line x1="1237.467" y1="86.297" x2="1237.467" y2="804.852" style="stroke:#181818;stroke-width:0.5;stroke-dasharray:5,5;"/></g><g><title></title><rect x="1232.467" y="582.656" width="10" height="13" fill="#FFF" style="stroke:#181818;stroke-width:1;"/></g><text x="10" y="82.995" fill="#000" font-size="14" textLength="164.288" font-family="Helvetica">:Onderwijsontwikkelaar</text><ellipse cx="95.144" cy="18.5" rx="8" ry="8" fill="#E2E2F0" style="stroke:#181818;stroke-width:0.5;"/><path d="M95.144,26.5 L95.144,53.5 M82.144,34.5 L108.144,34.5 M95.144,53.5 L82.144,68.5 M95.144,53.5 L108.144,68.5" style="stroke:#181818;stroke-width:0.5;" fill="none"/><rect x="319.932" y="38.703" width="129.097" height="46.594" fill="#E2E2F0" style="stroke:#181818;stroke-width:0.5;" rx="2.5" ry="2.5"/><text x="326.932" y="58.698" fill="#000" font-size="14" textLength="115.097" font-family="Helvetica">:BeheerPlanning</text><text x="356.918" y="74.995" fill="#000" font-size="14" textLength="55.125" font-family="Helvetica">Handler</text><rect x="498.144" y="38.703" width="122.78" height="46.594" fill="#E2E2F0" style="stroke:#181818;stroke-width:0.5;" rx="2.5" ry="2.5"/><text x="536.989" y="58.698" fill="#000" font-size="14" textLength="45.09" font-family="Helvetica">owes :</text><text x="505.144" y="74.995" fill="#000" font-size="14" textLength="108.78" font-family="Helvetica">OWERepository</text><rect x="630.924" y="55" width="89.954" height="30.297" fill="#E2E2F0" style="stroke:#181818;stroke-width:0.5;" rx="2.5" ry="2.5"/><text x="637.924" y="74.995" fill="#000" font-size="14" textLength="75.954" font-family="Helvetica">owe : OWE</text><rect x="1042.015" y="38.703" width="136.418" height="46.594" fill="#E2E2F0" style="stroke:#181818;stroke-width:0.5;" rx="2.5" ry="2.5"/><text x="1052.238" y="58.698" fill="#000" font-size="14" textLength="115.972" font-family="Helvetica">toetsdrukRegel :</text><text x="1049.015" y="74.995" fill="#000" font-size="14" textLength="122.418" font-family="Helvetica">Consistentieregel</text><rect x="1188.433" y="38.703" width="98.068" height="46.594" fill="#E2E2F0" style="stroke:#181818;stroke-width:0.5;" rx="2.5" ry="2.5"/><text x="1212.991" y="58.698" fill="#000" font-size="14" textLength="48.952" font-family="Helvetica">alle[i] :</text><text x="1195.433" y="74.995" fill="#000" font-size="14" textLength="84.068" font-family="Helvetica">Overtreding</text><polygon points="367.48,156.828,377.48,160.828,367.48,164.828" fill="#181818" style="stroke:#181818;stroke-width:1;stroke-linejoin:miter;stroke-miterlimit:10;"/><line x1="95.144" y1="160.828" x2="373.48" y2="160.828" style="stroke:#181818;stroke-width:1;"/><text x="102.144" y="110.364" fill="#000" font-size="13" textLength="107.047" font-family="Helvetica">overtredingen =</text><text x="102.144" y="125.497" fill="#000" font-size="13" textLength="260.336" font-family="Helvetica">voegToetsmomentToe(oweCode, naam,</text><text x="102.144" y="140.629" fill="#000" font-size="13" textLength="208.305" font-family="Helvetica">soort, startweek, deadlineweek,</text><text x="102.144" y="155.762" fill="#000" font-size="13" textLength="104.184" font-family="Helvetica">criteriumCodes)</text><polygon points="542.534,185.961,552.534,189.961,542.534,193.961" fill="#181818" style="stroke:#181818;stroke-width:1;stroke-linejoin:miter;stroke-miterlimit:10;"/><line x1="389.48" y1="189.961" x2="548.534" y2="189.961" style="stroke:#181818;stroke-width:1;"/><text x="396.48" y="184.895" fill="#000" font-size="13" textLength="146.053" font-family="Helvetica">owe = zoek(oweCode)</text><polygon points="658.901,245.359,668.901,249.359,658.901,253.359" fill="#181818" style="stroke:#181818;stroke-width:1;stroke-linejoin:miter;stroke-miterlimit:10;"/><line x1="389.48" y1="249.359" x2="664.901" y2="249.359" style="stroke:#181818;stroke-width:1;"/><text x="396.48" y="214.028" fill="#000" font-size="13" textLength="257.848" font-family="Helvetica">t = voegToetsmomentToe(naam, soort,</text><text x="396.48" y="229.161" fill="#000" font-size="13" textLength="166.918" font-family="Helvetica">startweek, deadlineweek,</text><text x="396.48" y="244.293" fill="#000" font-size="13" textLength="104.184" font-family="Helvetica">criteriumCodes)</text><line x1="680.901" y1="278.492" x2="722.901" y2="278.492" style="stroke:#181818;stroke-width:1;"/><line x1="722.901" y1="278.492" x2="722.901" y2="291.492" style="stroke:#181818;stroke-width:1;"/><line x1="681.901" y1="291.492" x2="722.901" y2="291.492" style="stroke:#181818;stroke-width:1;"/><polygon points="691.901,287.492,681.901,291.492,691.901,295.492" fill="#181818" style="stroke:#181818;stroke-width:1;stroke-linejoin:miter;stroke-miterlimit:10;"/><text x="687.901" y="273.426" fill="#000" font-size="13" textLength="177.646" font-family="Helvetica">controleerWeek(startweek)</text><line x1="680.901" y1="320.625" x2="722.901" y2="320.625" style="stroke:#181818;stroke-width:1;"/><line x1="722.901" y1="320.625" x2="722.901" y2="333.625" style="stroke:#181818;stroke-width:1;"/><line x1="681.901" y1="333.625" x2="722.901" y2="333.625" style="stroke:#181818;stroke-width:1;"/><polygon points="691.901,329.625,681.901,333.625,691.901,337.625" fill="#181818" style="stroke:#181818;stroke-width:1;stroke-linejoin:miter;stroke-miterlimit:10;"/><text x="687.901" y="315.559" fill="#000" font-size="13" textLength="203.296" font-family="Helvetica">controleerWeek(deadlineweek)</text><line x1="680.901" y1="362.758" x2="722.901" y2="362.758" style="stroke:#181818;stroke-width:1;"/><line x1="722.901" y1="362.758" x2="722.901" y2="375.758" style="stroke:#181818;stroke-width:1;"/><line x1="681.901" y1="375.758" x2="722.901" y2="375.758" style="stroke:#181818;stroke-width:1;"/><polygon points="691.901,371.758,681.901,375.758,691.901,379.758" fill="#181818" style="stroke:#181818;stroke-width:1;stroke-linejoin:miter;stroke-miterlimit:10;"/><text x="687.901" y="357.692" fill="#000" font-size="13" textLength="252.891" font-family="Helvetica">criteria = zoekCriteria(criteriumCodes)</text><rect x="901.579" y="383.758" width="130.437" height="30.297" fill="#E2E2F0" style="stroke:#181818;stroke-width:0.5;" rx="2.5" ry="2.5"/><text x="908.579" y="403.753" fill="#000" font-size="14" textLength="116.437" font-family="Helvetica">t : Toetsmoment</text><polygon points="889.579,416.023,899.579,420.023,889.579,424.023" fill="#181818" style="stroke:#181818;stroke-width:1;stroke-linejoin:miter;stroke-miterlimit:10;"/><line x1="680.901" y1="420.023" x2="895.579" y2="420.023" style="stroke:#181818;stroke-width:1;"/><text x="687.901" y="399.825" fill="#000" font-size="13" textLength="201.678" font-family="Helvetica">create(naam, soort, startweek,</text><text x="687.901" y="414.958" fill="#000" font-size="13" textLength="149.544" font-family="Helvetica">deadlineweek, criteria)</text><polygon points="542.534,445.156,552.534,449.156,542.534,453.156" fill="#181818" style="stroke:#181818;stroke-width:1;stroke-linejoin:miter;stroke-miterlimit:10;"/><line x1="389.48" y1="449.156" x2="548.534" y2="449.156" style="stroke:#181818;stroke-width:1;"/><text x="396.48" y="444.09" fill="#000" font-size="13" textLength="84.887" font-family="Helvetica">bewaar(owe)</text><polygon points="1093.224,474.289,1103.224,478.289,1093.224,482.289" fill="#181818" style="stroke:#181818;stroke-width:1;stroke-linejoin:miter;stroke-miterlimit:10;"/><line x1="389.48" y1="478.289" x2="1099.224" y2="478.289" style="stroke:#181818;stroke-width:1;"/><text x="396.48" y="473.223" fill="#000" font-size="13" textLength="145.761" font-family="Helvetica">alle = controleer(owe)</text><rect x="1044.015" y="486.289" width="150.863" height="39.102" fill="none" style="stroke:#000;stroke-width:1.5;"/><path d="M1044.015,486.289 L1109.015,486.289 L1109.015,493.289 L1099.015,503.289 L1044.015,503.289 L1044.015,486.289" style="stroke:#000;stroke-width:2;" fill="#EEE"/><text x="1057.015" y="500.356" fill="#000" font-size="13" textLength="20.884" font-weight="700" font-family="Helvetica">ref</text><text x="1048.015" y="518.428" fill="#000" font-size="12" textLength="142.863" font-family="Helvetica">SD BR5 ToetsdrukRegel</text><path d="M368.48,534.391 L445.104,534.391 L445.104,541.523 L435.104,551.523 L368.48,551.523 L368.48,534.391" style="stroke:#000;stroke-width:1.5;" fill="#EEE"/><rect x="368.48" y="534.391" width="889.987" height="56.266" fill="none" style="stroke:#000;stroke-width:1.5;"/><text x="383.48" y="547.458" fill="#000" font-size="13" textLength="31.624" font-weight="700" font-family="Helvetica">loop</text><text x="460.104" y="546.601" fill="#000" font-size="11" textLength="186.221" font-weight="700" font-family="Helvetica">[voor elke overtreding in alle]</text><polygon points="1220.467,578.656,1230.467,582.656,1220.467,586.656" fill="#181818" style="stroke:#181818;stroke-width:1;stroke-linejoin:miter;stroke-miterlimit:10;"/><line x1="389.48" y1="582.656" x2="1226.467" y2="582.656" style="stroke:#181818;stroke-width:1;"/><text x="396.48" y="577.59" fill="#000" font-size="13" textLength="59.604" font-family="Helvetica">betreft(t)</text><polygon points="106.144,621.789,96.144,625.789,106.144,629.789" fill="#181818" style="stroke:#181818;stroke-width:1;stroke-linejoin:miter;stroke-miterlimit:10;"/><line x1="100.144" y1="625.789" x2="378.48" y2="625.789" style="stroke:#181818;stroke-width:1;stroke-dasharray:2,2;"/><text x="112.144" y="620.723" fill="#000" font-size="13" textLength="92.022" font-family="Helvetica">overtredingen</text><path d="M625.803,638.789 L625.803,723.789 L1016.803,723.789 L1016.803,648.789 L1006.803,638.789 L625.803,638.789" style="stroke:#181818;stroke-width:0.5;" fill="#FEFFDD"/><path d="M1006.803,638.789 L1006.803,648.789 L1016.803,648.789 L1006.803,638.789" style="stroke:#181818;stroke-width:0.5;" fill="#FEFFDD"/><text x="676.14" y="655.856" fill="#000" font-size="13" textLength="281.417" font-family="Helvetica">7A: controleerWeek, zoekCriteria en create</text><text x="676.14" y="670.989" fill="#000" font-size="13" textLength="267.833" font-family="Helvetica">gooien een OngeldigeInvoerException bij</text><text x="676.14" y="686.122" fill="#000" font-size="13" textLength="184.406" font-family="Helvetica">ongeldige gegevens [BR14].</text><text x="676.14" y="701.254" fill="#000" font-size="13" textLength="240.563" font-family="Helvetica">create controleert dat startweek niet</text><text x="676.14" y="716.387" fill="#000" font-size="13" textLength="139.261" font-family="Helvetica">na deadlineweek ligt.</text><path d="M1039.471,734.453 L1039.471,789.453 L1307.471,789.453 L1307.471,744.453 L1297.471,734.453 L1039.471,734.453" style="stroke:#181818;stroke-width:0.5;" fill="#FEFFDD"/><path d="M1297.471,734.453 L1297.471,744.453 L1307.471,744.453 L1297.471,734.453" style="stroke:#181818;stroke-width:0.5;" fill="#FEFFDD"/><text x="1045.471" y="751.52" fill="#000" font-size="13" textLength="241.865" font-family="Helvetica">overtredingen: de weken met te veel</text><text x="1045.471" y="766.653" fill="#000" font-size="13" textLength="202.027" font-family="Helvetica">toetsmomenten waarin t loopt.</text><text x="1045.471" y="781.786" fill="#000" font-size="13" textLength="247.749" font-family="Helvetica">Niet leeg betekent 8A: waarschuwing.</text><?plantuml-src bLNVJzim47xFNt7YXLRAEY4DRQh4fD4niHUOoYOUA0yckQOcZjtPrnRsrtENf8qJq2GUsjg-Nzzztxa-XXlykq6R8UHQ5LvLi5KMmdCWnCgjqIlI25k7nM-752fNeILUmkZFxEGa1LwA4IrGPq-JOmYard3AfmHih93WotWYxaPdAzAsc4Bkil0njFNRyXm-gV8abDgkbS09z6oGlxtEQ5EPsB9IkTjn9bWg4p2ovBXK6qC_dAKhLI5SejaYwKmbAvqZB9sZ1_UK92eZv-5eUcrpz3lz63XWfyiIZLB-25I0-23Xv9n4hvKb3Zh75QB_PPIrZ65XBvND3JPXgsRTZt0x331TsElRYpckNT1S_BcfmfPNlZ05zjpR-sPYOwH7xHJnFt0MG-utvPnrCe9WvcpGhB1bRRqSrWdgLJzK6ODt-hv6lKLFdcMoHOEfsoT9J1Dy-Bhldr56RZm6PmlxUfH6tDxCvPY2LQfA5pOuvocL2VAqGonJ5bJbHbkiTmkRUKtezQQIi30M7VLM4HvutzTdA0thyWDdyCzXkIyNXTNySutUlf-3Kn0dU0Dz3HeQp8pz_Q15NQbmA9GndTuPdgvR3XqTKex_wnQN6tesfLNBmApTZeQGCey2A9waDazqLESJlrxdaLeBs-lyK7qyeFWDbHvmnnCa2hr37T-CDSYmSeSTBOCypNnxNDP3UGYx-GxdyzFcEXrkILolYJFEhLb-_hz0Ks8yrw1jNJi1Y3kA7AGnNYzfH6FswZg9xX10t69aG9jttKhY-AuDBbWCUtyNh6iJ2d5fJro0pz-6SvJsHaJ-knkrsRbmJlCU-NFDrKok2_mf5zfVF6Mu9kqiFEX7zdHxCnHCtXPjWBlp-Scd-maRsodhoXBaYhe10gjHi5dLkq9WT44JeGEafQYlMg1qm6QF5tvh47POjYyH1swHDOMO3RR9yB6O128s2TOhXWACiH059PwVCQPC74EssiZhqq5w0G00?></g></svg>