<svg xmlns="http://www.w3.org/2000/svg" xmlns:xlink="http://www.w3.org/1999/xlink" version="1.1" data-diagram-type="SEQUENCE" style="width:582px;height:332px;background:#FFFFFF;" width="582px" height="332px" viewBox="0 0 582 332" zoomAndPan="magnify" preserveAspectRatio="none" contentStyleType="text/css"><?plantuml 1.2026.8?><defs/><g font-family="sans-serif" lengthAdjust="spacing"><rect x="149.949" y="127.43" width="281.587" height="104.203" fill="none" style="stroke:#000;stroke-width:1.5;"/><g><title>.Onderwijsontwikkelaar</title><rect x="162.449" y="86.297" width="8" height="234.734" fill="#000" fill-opacity="0"/><line x1="165.949" y1="86.297" x2="165.949" y2="321.031" style="stroke:#181818;stroke-width:0.5;stroke-dasharray:5,5;"/></g><g><title>.ICDE</title><rect x="412.037" y="86.297" width="8" height="234.734" fill="#000" fill-opacity="0"/><line x1="415.537" y1="86.297" x2="415.537" y2="321.031" style="stroke:#181818;stroke-width:0.5;stroke-dasharray:5,5;"/></g><g><title></title><rect x="410.537" y="115.43" width="10" height="130.203" fill="#FFF" style="stroke:#181818;stroke-width:1;"/></g><text x="80.805" y="82.995" fill="#000" font-size="14" textLength="164.288" font-family="Helvetica">:Onderwijsontwikkelaar</text><ellipse cx="165.949" cy="18.5" rx="8" ry="8" fill="#E2E2F0" style="stroke:#181818;stroke-width:0.5;"/><path d="M165.949,26.5 L165.949,53.5 M152.949,34.5 L178.949,34.5 M165.949,53.5 L152.949,68.5 M165.949,53.5 L178.949,68.5" style="stroke:#181818;stroke-width:0.5;" fill="none"/><rect x="389.413" y="55" width="52.247" height="30.297" fill="#E2E2F0" style="stroke:#181818;stroke-width:0.5;" rx="2.5" ry="2.5"/><text x="396.413" y="74.995" fill="#000" font-size="14" textLength="38.247" font-family="Helvetica">:ICDE</text><polygon points="398.537,111.43,408.537,115.43,398.537,119.43" fill="#181818" style="stroke:#181818;stroke-width:1;stroke-linejoin:miter;stroke-miterlimit:10;"/><line x1="165.949" y1="115.43" x2="404.537" y2="115.43" style="stroke:#181818;stroke-width:1;"/><text x="172.949" y="110.364" fill="#000" font-size="13" textLength="136.697" font-family="Helvetica">controleer(oweCode)</text><path d="M149.949,127.43 L214.392,127.43 L214.392,134.563 L204.392,144.563 L149.949,144.563 L149.949,127.43" style="stroke:#000;stroke-width:1.5;" fill="#EEE"/><rect x="149.949" y="127.43" width="281.587" height="104.203" fill="none" style="stroke:#000;stroke-width:1.5;"/><text x="164.949" y="140.497" fill="#000" font-size="13" textLength="19.443" font-weight="700" font-family="Helvetica">alt</text><text x="229.392" y="139.64" fill="#000" font-size="11" textLength="138.918" font-weight="700" font-family="Helvetica">[geen leeruitkomsten]</text><polygon points="176.949,171.695,166.949,175.695,176.949,179.695" fill="#181818" style="stroke:#181818;stroke-width:1;stroke-linejoin:miter;stroke-miterlimit:10;"/><line x1="170.949" y1="175.695" x2="409.537" y2="175.695" style="stroke:#181818;stroke-width:1;stroke-dasharray:2,2;"/><text x="182.949" y="170.629" fill="#000" font-size="13" textLength="220.587" font-family="Helvetica">melding: niets te controleren (2A)</text><line x1="149.949" y1="184.695" x2="431.537" y2="184.695" style="stroke:#000;stroke-width:1;stroke-dasharray:2,2;"/><text x="154.949" y="196.906" fill="#000" font-size="11" textLength="129.685" font-weight="700" font-family="Helvetica">[wel leeruitkomsten]</text><polygon points="176.949,219.633,166.949,223.633,176.949,227.633" fill="#181818" style="stroke:#181818;stroke-width:1;stroke-linejoin:miter;stroke-miterlimit:10;"/><line x1="170.949" y1="223.633" x2="409.537" y2="223.633" style="stroke:#181818;stroke-width:1;stroke-dasharray:2,2;"/><text x="182.949" y="218.567" fill="#000" font-size="13" textLength="92.022" font-family="Helvetica">overtredingen</text><path d="M15,250.633 L15,305.633 L566,305.633 L566,260.633 L556,250.633 L15,250.633" style="stroke:#181818;stroke-width:0.5;" fill="#FEFFDD"/><path d="M556,250.633 L556,260.633 L566,260.633 L556,250.633" style="stroke:#181818;stroke-width:0.5;" fill="#FEFFDD"/><text x="21" y="267.7" fill="#000" font-size="13" textLength="530.486" font-family="Helvetica">Stap 4 en 5 (overtreding kiezen en onderdeel tonen) zijn geen systeemoperaties:</text><text x="21" y="282.833" fill="#000" font-size="13" textLength="271.559" font-family="Helvetica">elke overtreding kent haar onderdelen al.</text><text x="21" y="297.965" fill="#000" font-size="13" textLength="326.968" font-family="Helvetica">Een lege lijst betekent: de OWE is consistent (3A).</text><?plantuml-src ZP9FRzD04CNl-ob6lJIHQ410BpuWLI48BlHG4EUfzoMPUl-4tKbC--cPTOhat90iovfzyzkPvtTD3yzL4QdYzn6f1tdXNU589qxqS_tkbjOvQSa11OdwdAgOFgc0xdzjLkwQVcG4wVSgQTUHptrz-u_rYef8g-XT7IGTkA6hFWVOkqYlnnZc9tlsUJGIRJbKp4uyjdmC-iM6-SuHz1NX19MUtLuyQ9kpFkO_pd6lkT1LTvyyoYXFrHf66GO4vd95N6bUS0OtY1mugJLzMt_UJ1hfFPoRA-dcqrIbhfam6OAoo2FMsMFPhfKJAywT79HsCB-Qw2WwvDXCStH6t1ZhWjrHHF2JWKcWbGpKpsnVlBzREfWXD2ByFpIVKBIWWKs7v9t7vQ0fsrUJNRI-EHyIFIWVw2FP1BUqcD5e4BnOrPxSVFQmiJGdf2Mzo5CwBrzRiX3p0OKjBxKp8i80kY1PbcZVvdqb1Ulai3BjPZ9m1mhs6vKUeMXg2zcKFP8wooCjFjmjLsr9Qalz1G00?></g></svg>